RobotoCondensed-Light.ufo
<glyph name="five" format="2">
  <advance width="996"/>
  <unicode hex="0035"/>
  <guideline x="0.0" y="1658.0" angle="0.0" identifier="c7RPWQWTOy"/>
  <guideline x="0.0" y="1743.0" angle="0.0" identifier="JU0tzG8cNb"/>
  <outline>
    <contour>
      <point x="290" y="719" type="line"/>
      <point x="349" y="783"/>
      <point x="404" y="823"/>
      <point x="519" y="823" type="curve"/>
      <point x="694" y="823"/>
      <point x="792" y="667"/>
      <point x="792" y="462" type="curve" smooth="yes"/>
      <point x="792" y="221"/>
      <point x="702" y="84"/>
      <point x="533" y="84" type="curve" smooth="yes"/>
      <point x="379" y="84"/>
      <point x="284" y="188"/>
      <point x="265" y="383" type="curve"/>
      <point x="159" y="383" type="line"/>
      <point x="179" y="110"/>
      <point x="338" y="-20"/>
      <point x="533" y="-20" type="curve" smooth="yes"/>
      <point x="789" y="-20"/>
      <point x="903" y="185"/>
      <point x="903" y="464" type="curve" smooth="yes"/>
      <point x="903" y="755"/>
      <point x="760" y="934"/>
      <point x="540" y="934" type="curve"/>
      <point x="440" y="934"/>
      <point x="358" y="891"/>
      <point x="315" y="855" type="curve"/>
      <point x="357" y="1343" type="line"/>
      <point x="877" y="1343" type="line"/>
      <point x="877" y="1456" type="line"/>
      <point x="262" y="1456" type="line"/>
      <point x="202" y="746" type="line"/>
    </contour>
  </outline>
</glyph>
<glyph name="g" format="2">
  <advance width="997"/>
  <unicode hex="0067"/>
  <anchor x="491" y="1290" name="top"/>
  <anchor x="485" y="-447" name="bottom"/>
  <anchor x="977" y="1600" name="top_dd"/>
  <anchor x="977" y="-407" name="bottom_dd"/>
  <anchor x="977" y="1290" name="top0315"/>
  <anchor x="491" y="1290" name="parent_top"/>
  <outline>
    <contour>
      <point x="745" y="1082" type="line"/>
      <point x="737" y="844" type="line"/>
      <point x="737" y="-31" type="line" smooth="yes"/>
      <point x="737" y="-247"/>
      <point x="645" y="-328"/>
      <point x="478" y="-328" type="curve" smooth="yes"/>
      <point x="383" y="-328"/>
      <point x="294" y="-286"/>
      <point x="220" y="-202" type="curve"/>
      <point x="168" y="-282" type="line"/>
      <point x="241" y="-376"/>
      <point x="378" y="-431"/>
      <point x="486" y="-431" type="curve" smooth="yes"/>
      <point x="707" y="-431"/>
      <point x="848" y="-309"/>
      <point x="848" y="-27" type="curve" smooth="yes"/>
      <point x="848" y="1082" type="line"/>
    </contour>
    <contour>
      <point x="109" y="490" type="line"/>
      <point x="109" y="141"/>
      <point x="243" y="-21"/>
      <point x="460" y="-21" type="curve" smooth="yes"/>
      <point x="674" y="-21"/>
      <point x="782" y="142"/>
      <point x="808" y="370" type="curve"/>
      <point x="808" y="694" type="line"/>
      <point x="777" y="939"/>
      <point x="672" y="1102"/>
      <point x="462" y="1102" type="curve" smooth="yes"/>
      <point x="243" y="1102"/>
      <point x="109" y="953"/>
      <point x="109" y="591" type="curve" smooth="yes"/>
    </contour>
    <contour>
      <point x="221" y="591" type="line"/>
      <point x="221" y="867"/>
      <point x="302" y="996"/>
      <point x="484" y="996" type="curve" smooth="yes"/>
      <point x="670" y="996"/>
      <point x="739" y="842"/>
      <point x="765" y="714" type="curve"/>
      <point x="765" y="344" type="line"/>
      <point x="732" y="204"/>
      <point x="652" y="86"/>
      <point x="483" y="86" type="curve" smooth="yes"/>
      <point x="302" y="86"/>
      <point x="221" y="213"/>
      <point x="221" y="490" type="curve" smooth="yes"/>
    </contour>
  </outline>
</glyph>
<glyph name="v" format="2">
  <advance width="869"/>
  <unicode hex="0076"/>
  <guideline x="0.0" y="901.0" angle="0.0" identifier="jZfhyqJ17y"/>
  <guideline x="0.0" y="555.0" angle="0.0" identifier="OApKy0wvaz"/>
  <anchor x="440" y="1280" name="top"/>
  <anchor x="438" y="10" name="bottom"/>
  <anchor x="849" y="1600" name="top_dd"/>
  <anchor x="849" y="-407" name="bottom_dd"/>
  <anchor x="849" y="1280" name="top0315"/>
  <anchor x="440" y="1280" name="parent_top"/>
  <outline>
    <contour>
      <point x="419" y="117" type="line"/>
      <point x="399" y="0" type="line"/>
      <point x="479" y="0" type="line"/>
      <point x="816" y="1082" type="line"/>
      <point x="702" y="1082" type="line"/>
    </contour>
    <contour>
      <point x="166" y="1082" type="line"/>
      <point x="51" y="1082" type="line"/>
      <point x="390" y="0" type="line"/>
      <point x="470" y="0" type="line"/>
      <point x="454" y="114" type="line"/>
    </contour>
  </outline>
</glyph>
<glyph name="logicalnot" format="2">
  <advance width="981"/>
  <unicode hex="00AC"/>
  <outline>
    <contour>
      <point x="810" y="777" type="line"/>
      <point x="125" y="777" type="line"/>
      <point x="125" y="669" type="line"/>
      <point x="810" y="669" type="line"/>
    </contour>
    <contour>
      <point x="810" y="716" type="line"/>
      <point x="699" y="716" type="line"/>
      <point x="699" y="386" type="line"/>
      <point x="810" y="386" type="line"/>
    </contour>
  </outline>
</glyph>
<glyph name="OE" format="2">
  <advance width="1653"/>
  <unicode hex="0152"/>
  <anchor x="822" y="1617" name="top"/>
  <anchor x="822" y="-1" name="bottom"/>
  <anchor x="1633" y="1600" name="top_dd"/>
  <anchor x="1633" y="-407" name="bottom_dd"/>
  <anchor x="1633" y="1617" name="top0315"/>
  <anchor x="822" y="1617" name="parent_top"/>
  <outline>
    <contour>
      <point x="564" y="1476" type="curve" smooth="yes"/>
      <point x="294" y="1476"/>
      <point x="110" y="1233"/>
      <point x="110" y="880" type="curve"/>
      <point x="110" y="576" type="line"/>
      <point x="110" y="223"/>
      <point x="296" y="-21"/>
      <point x="565" y="-21" type="curve" smooth="yes"/>
      <point x="656" y="-21"/>
      <point x="744" y="-10"/>
      <point x="824" y="0" type="curve"/>
      <point x="824" y="107" type="line"/>
      <point x="749" y="91"/>
      <point x="655" y="83"/>
      <point x="565" y="83" type="curve" smooth="yes"/>
      <point x="356" y="83"/>
      <point x="222" y="273"/>
      <point x="222" y="576" type="curve"/>
      <point x="222" y="882" type="line"/>
      <point x="222" y="1188"/>
      <point x="355" y="1373"/>
      <point x="564" y="1373" type="curve" smooth="yes"/>
      <point x="657" y="1373"/>
      <point x="746" y="1365"/>
      <point x="824" y="1349" type="curve"/>
      <point x="824" y="1456" type="line"/>
      <point x="744" y="1467"/>
      <point x="655" y="1476"/>
    </contour>
    <contour>
      <point x="1533" y="107" type="line"/>
      <point x="853" y="107" type="line"/>
      <point x="853" y="0" type="line"/>
      <point x="1533" y="0" type="line"/>
    </contour>
    <contour>
      <point x="884" y="1456" type="line"/>
      <point x="769" y="1456" type="line"/>
      <point x="769" y="0" type="line"/>
      <point x="884" y="0" type="line"/>
    </contour>
    <contour>
      <point x="1447" y="804" type="line"/>
      <point x="853" y="804" type="line"/>
      <point x="853" y="697" type="line"/>
      <point x="1447" y="697" type="line"/>
    </contour>
    <contour>
      <point x="1528" y="1456" type="line"/>
      <point x="853" y="1456" type="line"/>
      <point x="853" y="1349" type="line"/>
      <point x="1528" y="1349" type="line"/>
    </contour>
  </outline>
</glyph>
<glyph name="Uogonek" format="2">
  <advance width="1168"/>
  <unicode hex="0172"/>
  <anchor x="591" y="1606" name="parent_top"/>
  <anchor x="585" y="0" name="bottom"/>
  <anchor x="1148" y="1600" name="top_dd"/>
  <anchor x="1148" y="-407" name="bottom_dd"/>
  <anchor x="1148" y="1606" name="top0315"/>
  <anchor x="591" y="1606" name="top"/>
  <outline>
    <contour>
      <point x="904" y="1456" type="line"/>
      <point x="904" y="430" type="line" smooth="yes"/>
      <point x="904" y="176"/>
      <point x="772" y="86"/>
      <point x="585" y="86" type="curve" smooth="yes"/>
      <point x="400" y="86"/>
      <point x="267" y="176"/>
      <point x="267" y="430" type="curve" smooth="yes"/>
      <point x="267" y="1456" type="line"/>
      <point x="153" y="1456" type="line"/>
      <point x="153" y="430" type="line"/>
      <point x="153" y="102"/>
      <point x="340" y="-21"/>
      <point x="585" y="-21" type="curve" smooth="yes"/>
      <point x="823" y="-21"/>
      <point x="1018" y="102"/>
      <point x="1018" y="430" type="curve"/>
      <point x="1018" y="1456" type="line"/>
    </contour>
    <contour>
      <point x="756" y="78" type="line"/>
      <point x="632" y="-1"/>
      <point x="559" y="-105"/>
      <point x="559" y="-206" type="curve" smooth="yes"/>
      <point x="559" y="-319"/>
      <point x="621" y="-376"/>
      <point x="705" y="-376" type="curve" smooth="yes"/>
      <point x="766" y="-376"/>
      <point x="804" y="-352"/>
      <point x="828" y="-332" type="curve"/>
      <point x="816" y="-246" type="line"/>
      <point x="798" y="-260"/>
      <point x="769" y="-279"/>
      <point x="729" y="-279" type="curve" smooth="yes"/>
      <point x="675" y="-279"/>
      <point x="658" y="-241"/>
      <point x="658" y="-195" type="curve" smooth="yes"/>
      <point x="658" y="-103"/>
      <point x="732" y="-30"/>
      <point x="808" y="39" type="curve"/>
    </contour>
  </outline>
</glyph>
<glyph name="lambdabar" format="2">
  <advance width="988"/>
  <unicode hex="019B"/>
  <anchor x="829" y="1612" name="top0315"/>
  <outline>
    <contour>
      <point x="603" y="1398" type="line"/>
      <point x="199" y="1211" type="line"/>
      <point x="199" y="1099" type="line"/>
      <point x="603" y="1286" type="line"/>
    </contour>
    <contour>
      <point x="470" y="903" type="line"/>
      <point x="504" y="1081" type="line"/>
      <point x="424" y="1102" type="line"/>
      <point x="60" y="0" type="line"/>
      <point x="183" y="0" type="line"/>
    </contour>
    <contour>
      <point x="234" y="1518" type="curve"/>
      <point x="215" y="1518"/>
      <point x="181" y="1513"/>
      <point x="167" y="1507" type="curve"/>
      <point x="171" y="1410" type="line"/>
      <point x="180" y="1412"/>
      <point x="202" y="1414"/>
      <point x="210" y="1414" type="curve" smooth="yes"/>
      <point x="278" y="1414"/>
      <point x="306" y="1356"/>
      <point x="337" y="1259" type="curve" smooth="yes"/>
      <point x="430" y="978" type="line"/>
      <point x="677" y="198" type="line" smooth="yes"/>
      <point x="720" y="67"/>
      <point x="763" y="-12"/>
      <point x="873" y="-12" type="curve" smooth="yes"/>
      <point x="894" y="-12"/>
      <point x="919" y="-6"/>
      <point x="931" y="-1" type="curve"/>
      <point x="925" y="102" type="line"/>
      <point x="916" y="99"/>
      <point x="899" y="97"/>
      <point x="890" y="97" type="curve" smooth="yes"/>
      <point x="838" y="97"/>
      <point x="813" y="143"/>
      <point x="785" y="236" type="curve" smooth="yes"/>
      <point x="444" y="1303" type="line" smooth="yes"/>
      <point x="414" y="1402"/>
      <point x="367" y="1518"/>
    </contour>
  </outline>
</glyph>
<glyph name="pipe" format="2">
  <advance width="482"/>
  <unicode hex="01C0"/>
  <outline>
    <contour>
      <point x="288" y="1456" type="line"/>
      <point x="195" y="1456" type="line"/>
      <point x="195" y="0" type="line"/>
      <point x="288" y="0" type="line"/>
    </contour>
  </outline>
</glyph>
<glyph name="Gsmallcap" format="2">
  <advance width="1059"/>
  <unicode hex="0262"/>
  <anchor x="540" y="1290" name="top"/>
  <anchor x="540" y="0" name="bottom"/>
  <anchor x="1039" y="1290" name="top0315"/>
  <anchor x="540" y="1290" name="parent_top"/>
  <outline>
    <contour>
      <point x="932" y="522" type="line"/>
      <point x="568" y="522" type="line"/>
      <point x="568" y="418" type="line"/>
      <point x="813" y="418" type="line"/>
      <point x="813" y="191" type="line"/>
      <point x="784" y="147"/>
      <point x="701" y="85"/>
      <point x="547" y="85" type="curve" smooth="yes"/>
      <point x="357" y="85"/>
      <point x="236" y="244"/>
      <point x="236" y="461" type="curve" smooth="yes"/>
      <point x="236" y="625" type="line" smooth="yes"/>
      <point x="236" y="840"/>
      <point x="357" y="999"/>
      <point x="539" y="999" type="curve" smooth="yes"/>
      <point x="718" y="999"/>
      <point x="794" y="912"/>
      <point x="810" y="749" type="curve"/>
      <point x="922" y="749" type="line"/>
      <point x="904" y="966"/>
      <point x="787" y="1101"/>
      <point x="539" y="1101" type="curve" smooth="yes"/>
      <point x="296" y="1101"/>
      <point x="125" y="907"/>
      <point x="125" y="624" type="curve" smooth="yes"/>
      <point x="125" y="461" type="line" smooth="yes"/>
      <point x="125" y="178"/>
      <point x="296" y="-18"/>
      <point x="547" y="-18" type="curve" smooth="yes"/>
      <point x="763" y="-18"/>
      <point x="895" y="92"/>
      <point x="932" y="157" type="curve"/>
    </contour>
  </outline>
</glyph>
<glyph name="Rsmallcap" format="2">
  <advance width="953"/>
  <unicode hex="0280"/>
  <anchor x="460" y="1290" name="top"/>
  <anchor x="460" y="0" name="bottom"/>
  <anchor x="933" y="1290" name="top0315"/>
  <anchor x="460" y="1290" name="parent_top"/>
  <outline>
    <contour>
      <point x="486" y="497" type="line"/>
      <point x="740" y="0" type="line"/>
      <point x="861" y="0" type="line"/>
      <point x="608" y="497" type="line"/>
    </contour>
    <contour>
      <point x="134" y="1082" type="line"/>
      <point x="134" y="0" type="line"/>
      <point x="246" y="0" type="line"/>
      <point x="246" y="979" type="line"/>
      <point x="497" y="979" type="line" smooth="yes"/>
      <point x="651" y="979"/>
      <point x="715" y="871"/>
      <point x="715" y="757" type="curve" smooth="yes"/>
      <point x="715" y="648"/>
      <point x="659" y="540"/>
      <point x="522" y="540" type="curve" smooth="yes"/>
      <point x="208" y="540" type="line"/>
      <point x="208" y="435" type="line"/>
      <point x="522" y="435" type="line" smooth="yes"/>
      <point x="716" y="435"/>
      <point x="826" y="573"/>
      <point x="826" y="759" type="curve" smooth="yes"/>
      <point x="826" y="944"/>
      <point x="707" y="1082"/>
      <point x="497" y="1082" type="curve" smooth="yes"/>
    </contour>
  </outline>
</glyph>
<glyph name="glottalstopinv" format="2">
  <advance width="927"/>
  <unicode hex="0296"/>
  <guideline x="0.0" y="-20.0" angle="0.0" identifier="P5kfhsUVVy"/>
  <guideline x="0.0" y="1535.0" angle="0.0" identifier="0Y3kWKqTpF"/>
  <anchor x="438" y="1633" name="top"/>
  <anchor x="438" y="0" name="bottom"/>
  <anchor x="907" y="1633" name="top0315"/>
  <anchor x="438" y="1633" name="parent_top"/>
  <outline>
    <contour>
      <point x="436" y="1019" type="line"/>
      <point x="642" y="1019"/>
      <point x="716" y="812"/>
      <point x="716" y="582" type="curve" smooth="yes"/>
      <point x="716" y="520" type="line" smooth="yes"/>
      <point x="716" y="292"/>
      <point x="641" y="84"/>
      <point x="437" y="84" type="curve" smooth="yes"/>
      <point x="302" y="84"/>
      <point x="199" y="191"/>
      <point x="191" y="365" type="curve"/>
      <point x="85" y="365" type="line"/>
      <point x="93" y="130"/>
      <point x="240" y="-20"/>
      <point x="437" y="-20" type="curve" smooth="yes"/>
      <point x="694" y="-20"/>
      <point x="827" y="217"/>
      <point x="827" y="520" type="curve" smooth="yes"/>
      <point x="827" y="582" type="line" smooth="yes"/>
      <point x="827" y="886"/>
      <point x="695" y="1123"/>
      <point x="436" y="1123" type="curve" smooth="yes"/>
      <point x="406" y="1123" type="line"/>
      <point x="406" y="1019" type="line"/>
    </contour>
    <contour>
      <point x="492" y="1536" type="line"/>
      <point x="381" y="1536" type="line"/>
      <point x="381" y="1018" type="line"/>
      <point x="492" y="1018" type="line"/>
    </contour>
  </outline>
</glyph>
<glyph name="uni0371" format="2">
  <advance width="873"/>
  <unicode hex="0371"/>
  <outline>
    <contour>
      <point x="367" y="0" type="line"/>
      <point x="367" y="778" type="line" smooth="yes"/>
      <point x="367" y="987"/>
      <point x="277" y="1102"/>
      <point x="133" y="1102" type="curve" smooth="yes"/>
      <point x="103" y="1102"/>
      <point x="72" y="1096"/>
      <point x="45" y="1086" type="curve"/>
      <point x="50" y="995" type="line"/>
      <point x="65" y="1001"/>
      <point x="92" y="1008"/>
      <point x="114" y="1008" type="curve" smooth="yes"/>
      <point x="213" y="1008"/>
      <point x="256" y="931"/>
      <point x="256" y="778" type="curve" smooth="yes"/>
      <point x="256" y="0" type="line"/>
    </contour>
    <contour>
      <point x="828" y="599" type="line"/>
      <point x="340" y="599" type="line"/>
      <point x="340" y="495" type="line"/>
      <point x="828" y="495" type="line"/>
    </contour>
  </outline>
</glyph>
<glyph name="Lambda" format="2">
  <advance width="1158"/>
  <unicode hex="039B"/>
  <outline>
    <contour>
      <point x="82" y="0" type="line"/>
      <point x="201" y="0" type="line"/>
      <point x="579" y="1293" type="line"/>
      <point x="957" y="0" type="line"/>
      <point x="1076" y="0" type="line"/>
      <point x="632" y="1456" type="line"/>
      <point x="526" y="1456" type="line"/>
    </contour>
  </outline>
</glyph>
<glyph name="mu" format="2">
  <advance width="1001"/>
  <unicode hex="03BC"/>
  <outline>
    <contour>
      <point x="148" y="-416" type="line"/>
      <point x="259" y="-416" type="line"/>
      <point x="259" y="67" type="line"/>
      <point x="298" y="13"/>
      <point x="372" y="-20"/>
      <point x="463" y="-20" type="curve" smooth="yes"/>
      <point x="606" y="-20"/>
      <point x="674" y="68"/>
      <point x="713" y="127" type="curve"/>
      <point x="715" y="127" type="line"/>
      <point x="725" y="4"/>
      <point x="786" y="-19"/>
      <point x="861" y="-19" type="curve" smooth="yes"/>
      <point x="885" y="-19"/>
      <point x="916" y="-13"/>
      <point x="938" y="0" type="curve"/>
      <point x="938" y="94" type="line"/>
      <point x="921" y="85"/>
      <point x="904" y="82"/>
      <point x="887" y="82" type="curve" smooth="yes"/>
      <point x="838" y="82"/>
      <point x="821" y="102"/>
      <point x="821" y="189" type="curve"/>
      <point x="821" y="1082" type="line"/>
      <point x="710" y="1082" type="line"/>
      <point x="710" y="349" type="line" smooth="yes"/>
      <point x="710" y="201"/>
      <point x="637" y="88"/>
      <point x="473" y="88" type="curve" smooth="yes"/>
      <point x="343" y="88"/>
      <point x="278" y="138"/>
      <point x="259" y="214" type="curve"/>
      <point x="259" y="1082" type="line"/>
      <point x="148" y="1082" type="line"/>
    </contour>
  </outline>
</glyph>
<glyph name="xi" format="2">
  <advance width="884"/>
  <unicode hex="03BE"/>
  <outline>
    <contour>
      <point x="598" y="-348" type="curve"/>
      <point x="700" y="-348" type="line"/>
      <point x="736" y="-275"/>
      <point x="755" y="-201"/>
      <point x="755" y="-136" type="curve"/>
      <point x="755" y="-14"/>
      <point x="676" y="43"/>
      <point x="509" y="100" type="curve" smooth="yes"/>
      <point x="471" y="113" type="line" smooth="yes"/>
      <point x="314" y="167"/>
      <point x="230" y="228"/>
      <point x="230" y="402" type="curve" smooth="yes"/>
      <point x="230" y="592"/>
      <point x="332" y="720"/>
      <point x="537" y="720" type="curve" smooth="yes"/>
      <point x="726" y="720" type="line"/>
      <point x="726" y="825" type="line"/>
      <point x="537" y="825" type="line" smooth="yes"/>
      <point x="356" y="825"/>
      <point x="267" y="927"/>
      <point x="267" y="1087" type="curve" smooth="yes"/>
      <point x="267" y="1285"/>
      <point x="387" y="1413"/>
      <point x="782" y="1437" type="curve"/>
      <point x="782" y="1536" type="line"/>
      <point x="133" y="1536" type="line"/>
      <point x="133" y="1430" type="line"/>
      <point x="467" y="1430" type="line"/>
      <point x="467" y="1448" type="line"/>
      <point x="261" y="1438"/>
      <point x="156" y="1263"/>
      <point x="156" y="1087" type="curve" smooth="yes"/>
      <point x="156" y="915"/>
      <point x="241" y="798"/>
      <point x="382" y="758" type="curve"/>
      <point x="382" y="776" type="line"/>
      <point x="232" y="739"/>
      <point x="119" y="615"/>
      <point x="119" y="393" type="curve" smooth="yes"/>
      <point x="119" y="165"/>
      <point x="238" y="78"/>
      <point x="405" y="21" type="curve" smooth="yes"/>
      <point x="475" y="-3" type="line" smooth="yes"/>
      <point x="589" y="-42"/>
      <point x="645" y="-78"/>
      <point x="645" y="-159" type="curve"/>
      <point x="645" y="-219"/>
      <point x="635" y="-253"/>
    </contour>
  </outline>
</glyph>
<glyph name="psi" format="2">
  <advance width="1222"/>
  <unicode hex="03C8"/>
  <outline>
    <contour>
      <point x="556" y="-416" type="line"/>
      <point x="667" y="-416" type="line"/>
      <point x="667" y="-19" type="line"/>
      <point x="957" y="-11"/>
      <point x="1104" y="154"/>
      <point x="1104" y="480" type="curve" smooth="yes"/>
      <point x="1104" y="1082" type="line"/>
      <point x="993" y="1082" type="line"/>
      <point x="993" y="490" type="line" smooth="yes"/>
      <point x="993" y="249"/>
      <point x="929" y="95"/>
      <point x="667" y="82" type="curve"/>
      <point x="667" y="1536" type="line"/>
      <point x="556" y="1536" type="line"/>
      <point x="556" y="82" type="line"/>
      <point x="295" y="95"/>
      <point x="230" y="249"/>
      <point x="230" y="490" type="curve" smooth="yes"/>
      <point x="230" y="1082" type="line"/>
      <point x="119" y="1082" type="line"/>
      <point x="119" y="480" type="line" smooth="yes"/>
      <point x="119" y="154"/>
      <point x="266" y="-11"/>
      <point x="556" y="-19" type="curve"/>
    </contour>
  </outline>
</glyph>
<glyph name="uni04B8" format="2">
  <advance width="1186"/>
  <unicode hex="04B8"/>
  <outline>
    <contour>
      <point x="657" y="1050" type="line"/>
      <point x="563" y="1050" type="line"/>
      <point x="563" y="359" type="line"/>
      <point x="657" y="359" type="line"/>
    </contour>
    <contour>
      <point x="162" y="1456" type="line"/>
      <point x="162" y="1052" type="line"/>
      <point x="162" y="725"/>
      <point x="312" y="603"/>
      <point x="571" y="603" type="curve" smooth="yes"/>
      <point x="716" y="603"/>
      <point x="826" y="633"/>
      <point x="937" y="672" type="curve"/>
      <point x="937" y="780" type="line"/>
      <point x="820" y="737"/>
      <point x="700" y="710"/>
      <point x="571" y="710" type="curve" smooth="yes"/>
      <point x="377" y="710"/>
      <point x="276" y="799"/>
      <point x="276" y="1052" type="curve" smooth="yes"/>
      <point x="276" y="1456" type="line"/>
    </contour>
    <contour>
      <point x="902" y="1456" type="line"/>
      <point x="902" y="0" type="line"/>
      <point x="1016" y="0" type="line"/>
      <point x="1016" y="1456" type="line"/>
    </contour>
  </outline>
</glyph>
<glyph name="uni04E0" format="2">
  <advance width="1032"/>
  <unicode hex="04E0"/>
  <guideline x="0.0" y="1658.0" angle="0.0" identifier="g48qxwyuHY"/>
  <guideline x="0.0" y="555.0" angle="0.0" identifier="L2dPLCYZZo"/>
  <outline>
    <contour>
      <point x="142" y="1456" type="line"/>
      <point x="142" y="1349" type="line"/>
      <point x="743" y="1349" type="line"/>
      <point x="384" y="843" type="line"/>
      <point x="384" y="776" type="line"/>
      <point x="460" y="776" type="line"/>
      <point x="877" y="1359" type="line"/>
      <point x="875" y="1456" type="line"/>
    </contour>
    <contour>
      <point x="384" y="839" type="line"/>
      <point x="384" y="740" type="line"/>
      <point x="489" y="740" type="line" smooth="yes"/>
      <point x="679" y="740"/>
      <point x="782" y="637"/>
      <point x="782" y="392" type="curve" smooth="yes"/>
      <point x="782" y="208"/>
      <point x="680" y="86"/>
      <point x="503" y="86" type="curve" smooth="yes"/>
      <point x="338" y="86"/>
      <point x="229" y="223"/>
      <point x="229" y="404" type="curve"/>
      <point x="113" y="404" type="line"/>
      <point x="113" y="109"/>
      <point x="312" y="-21"/>
      <point x="503" y="-21" type="curve" smooth="yes"/>
      <point x="731" y="-21"/>
      <point x="896" y="131"/>
      <point x="896" y="396" type="curve" smooth="yes"/>
      <point x="896" y="681"/>
      <point x="756" y="840"/>
      <point x="495" y="840" type="curve" smooth="yes"/>
    </contour>
  </outline>
</glyph>
<glyph name="uni050A" format="2">
  <advance width="1724"/>
  <unicode hex="050A"/>
  <anchor x="617" y="1612" name="top"/>
  <anchor x="1704" y="1612" name="top0315"/>
  <anchor x="617" y="1612" name="parent_top"/>
  <outline>
    <contour>
      <point x="267" y="773" type="line"/>
      <point x="267" y="667" type="line"/>
      <point x="938" y="667" type="line"/>
      <point x="938" y="773" type="line"/>
    </contour>
    <contour>
      <point x="176" y="1456" type="line"/>
      <point x="176" y="0" type="line"/>
      <point x="291" y="0" type="line"/>
      <point x="291" y="1456" type="line"/>
    </contour>
    <contour>
      <point x="916" y="1456" type="line"/>
      <point x="916" y="346" type="line"/>
      <point x="924" y="83"/>
      <point x="1026" y="-25"/>
      <point x="1192" y="-21" type="curve"/>
      <point x="1397" y="-21"/>
      <point x="1563" y="158"/>
      <point x="1568" y="529" type="curve"/>
      <point x="1570" y="666"/>
      <point x="1541" y="802"/>
      <point x="1511" y="932" type="curve"/>
      <point x="1399" y="931" type="line"/>
      <point x="1432" y="798"/>
      <point x="1454" y="662"/>
      <point x="1453" y="529" type="curve"/>
      <point x="1450" y="259"/>
      <point x="1359" y="88"/>
      <point x="1192" y="86" type="curve"/>
      <point x="1093" y="86"/>
      <point x="1030" y="177"/>
      <point x="1030" y="346" type="curve"/>
      <point x="1030" y="1456" type="line"/>
    </contour>
  </outline>
</glyph>
<glyph name="uni1D12" format="2">
  <advance width="1141"/>
  <unicode hex="1D12"/>
  <outline>
    <contour>
      <point x="192" y="517" type="curve" smooth="yes"/>
      <point x="192" y="765"/>
      <point x="365" y="857"/>
      <point x="553" y="857" type="curve" smooth="yes"/>
      <point x="588" y="857" type="line" smooth="yes"/>
      <point x="775" y="857"/>
      <point x="949" y="764"/>
      <point x="949" y="518" type="curve" smooth="yes"/>
      <point x="949" y="356"/>
      <point x="859" y="228"/>
      <point x="718" y="218" type="curve"/>
      <point x="718" y="101" type="line"/>
      <point x="914" y="111"/>
      <point x="1042" y="286"/>
      <point x="1042" y="518" type="curve" smooth="yes"/>
      <point x="1042" y="821"/>
      <point x="842" y="980"/>
      <point x="588" y="980" type="curve" smooth="yes"/>
      <point x="553" y="980" type="line" smooth="yes"/>
      <point x="300" y="980"/>
      <point x="99" y="822"/>
      <point x="99" y="517" type="curve" smooth="yes"/>
      <point x="99" y="297"/>
      <point x="227" y="111"/>
      <point x="399" y="101" type="curve"/>
      <point x="399" y="218" type="line"/>
      <point x="267" y="230"/>
      <point x="192" y="367"/>
    </contour>
  </outline>
</glyph>
<glyph name="uni1D6F" format="2">
  <advance width="1667"/>
  <unicode hex="1D6F"/>
  <anchor x="839" y="1290" name="top"/>
  <anchor x="839" y="0" name="bottom"/>
  <anchor x="1647" y="1290" name="top0315"/>
  <anchor x="839" y="1290" name="parent_top"/>
  <outline>
    <contour>
      <point x="1555" y="704" type="line"/>
      <point x="1508" y="607"/>
      <point x="1457" y="562"/>
      <point x="1314" y="562" type="curve" smooth="yes"/>
      <point x="986" y="562"/>
      <point x="652" y="672"/>
      <point x="355" y="672" type="curve" smooth="yes"/>
      <point x="187" y="672"/>
      <point x="88" y="602"/>
      <point x="45" y="467" type="curve"/>
      <point x="113" y="438" type="line"/>
      <point x="155" y="536"/>
      <point x="204" y="572"/>
      <point x="356" y="572" type="curve" smooth="yes"/>
      <point x="669" y="572"/>
      <point x="1007" y="463"/>
      <point x="1314" y="463" type="curve" smooth="yes"/>
      <point x="1502" y="463"/>
      <point x="1586" y="545"/>
      <point x="1623" y="668" type="curve"/>
    </contour>
    <contour>
      <point x="307" y="859" type="line"/>
      <point x="302" y="1082" type="line"/>
      <point x="195" y="1082" type="line"/>
      <point x="195" y="0" type="line"/>
      <point x="307" y="0" type="line"/>
    </contour>
    <contour>
      <point x="286" y="608" type="line"/>
      <point x="289" y="770"/>
      <point x="359" y="996"/>
      <point x="560" y="996" type="curve" smooth="yes"/>
      <point x="689" y="996"/>
      <point x="777" y="929"/>
      <point x="777" y="716" type="curve"/>
      <point x="777" y="0" type="line"/>
      <point x="888" y="0" type="line"/>
      <point x="888" y="720" type="line"/>
      <point x="888" y="993"/>
      <point x="770" y="1102"/>
      <point x="595" y="1102" type="curve" smooth="yes"/>
      <point x="370" y="1102"/>
      <point x="243" y="893"/>
      <point x="232" y="637" type="curve"/>
    </contour>
    <contour>
      <point x="887" y="702" type="line"/>
      <point x="891" y="830"/>
      <point x="975" y="995"/>
      <point x="1143" y="996" type="curve" smooth="yes"/>
      <point x="1272" y="997"/>
      <point x="1359" y="934"/>
      <point x="1359" y="707" type="curve" smooth="yes"/>
      <point x="1359" y="0" type="line"/>
      <point x="1470" y="0" type="line"/>
      <point x="1470" y="706" type="line" smooth="yes"/>
      <point x="1470" y="986"/>
      <point x="1362" y="1102"/>
      <point x="1171" y="1102" type="curve" smooth="yes"/>
      <point x="953" y="1102"/>
      <point x="823" y="909"/>
      <point x="812" y="698" type="curve"/>
    </contour>
  </outline>
</glyph>
<glyph name="uni1D9C" format="2">
  <advance width="710"/>
  <unicode hex="1D9C"/>
  <outline>
    <contour>
      <point x="372" y="739" type="curve" smooth="yes"/>
      <point x="237" y="739"/>
      <point x="181" y="869"/>
      <point x="181" y="1039" type="curve" smooth="yes"/>
      <point x="181" y="1070" type="line" smooth="yes"/>
      <point x="181" y="1243"/>
      <point x="242" y="1366"/>
      <point x="371" y="1366" type="curve" smooth="yes"/>
      <point x="471" y="1366"/>
      <point x="534" y="1308"/>
      <point x="544" y="1185" type="curve"/>
      <point x="632" y="1185" type="line"/>
      <point x="626" y="1359"/>
      <point x="518" y="1466"/>
      <point x="371" y="1466" type="curve" smooth="yes"/>
      <point x="181" y="1466"/>
      <point x="78" y="1294"/>
      <point x="78" y="1070" type="curve" smooth="yes"/>
      <point x="78" y="1039" type="line" smooth="yes"/>
      <point x="78" y="814"/>
      <point x="181" y="639"/>
      <point x="372" y="639" type="curve" smooth="yes"/>
      <point x="510" y="639"/>
      <point x="625" y="749"/>
      <point x="632" y="902" type="curve"/>
      <point x="544" y="902" type="line"/>
      <point x="533" y="786"/>
      <point x="463" y="739"/>
    </contour>
  </outline>
</glyph>
<glyph name="uni1FCF" format="2">
  <advance width="656"/>
  <unicode hex="1FCF"/>
  <guideline x="372.0" y="0.0" angle="90.0" identifier="Tb88ggWcuS"/>
  <outline>
    <contour>
      <point x="498" y="1683" type="line"/>
      <point x="498" y="1626"/>
      <point x="462" y="1586"/>
      <point x="420" y="1586" type="curve" smooth="yes"/>
      <point x="349" y="1586"/>
      <point x="317" y="1669"/>
      <point x="238" y="1669" type="curve" smooth="yes"/>
      <point x="159" y="1669"/>
      <point x="102" y="1598"/>
      <point x="102" y="1508" type="curve"/>
      <point x="160" y="1493" type="line"/>
      <point x="160" y="1548"/>
      <point x="195" y="1586"/>
      <point x="238" y="1586" type="curve" smooth="yes"/>
      <point x="311" y="1586"/>
      <point x="330" y="1504"/>
      <point x="420" y="1504" type="curve" smooth="yes"/>
      <point x="498" y="1504"/>
      <point x="555" y="1574"/>
      <point x="555" y="1666" type="curve"/>
    </contour>
    <contour>
      <point x="383" y="1459" type="line"/>
      <point x="292" y="1459" type="line"/>
      <point x="292" y="1373" type="line" smooth="yes"/>
      <point x="292" y="1297"/>
      <point x="271" y="1239"/>
      <point x="225" y="1190" type="curve"/>
      <point x="275" y="1145" type="line"/>
      <point x="344" y="1191"/>
      <point x="383" y="1283"/>
      <point x="383" y="1371" type="curve" smooth="yes"/>
    </contour>
  </outline>
</glyph>
<glyph name="quotedblreversed" format="2">
  <advance width="587"/>
  <unicode hex="201F"/>
  <outline>
    <contour>
      <point x="87" y="1560" type="line"/>
      <point x="197" y="1560" type="line"/>
      <point x="197" y="1383" type="line" smooth="yes"/>
      <point x="197" y="1273"/>
      <point x="224" y="1191"/>
      <point x="276" y="1105" type="curve"/>
      <point x="210" y="1053" type="line"/>
      <point x="134" y="1134"/>
      <point x="87" y="1260"/>
      <point x="87" y="1385" type="curve" smooth="yes"/>
    </contour>
    <contour>
      <point x="312" y="1560" type="line"/>
      <point x="422" y="1560" type="line"/>
      <point x="422" y="1383" type="line" smooth="yes"/>
      <point x="422" y="1273"/>
      <point x="448" y="1191"/>
      <point x="500" y="1105" type="curve"/>
      <point x="435" y="1053" type="line"/>
      <point x="358" y="1134"/>
      <point x="312" y="1260"/>
      <point x="312" y="1385" type="curve" smooth="yes"/>
    </contour>
  </outline>
</glyph>
<glyph name="referencemark" format="2">
  <advance width="1014"/>
  <unicode hex="203B"/>
  <outline>
    <contour>
      <point x="205" y="237" type="line"/>
      <point x="859" y="1031" type="line"/>
      <point x="786" y="1113" type="line"/>
      <point x="132" y="318" type="line"/>
    </contour>
    <contour>
      <point x="797" y="237" type="line"/>
      <point x="870" y="318" type="line"/>
      <point x="215" y="1113" type="line"/>
      <point x="142" y="1031" type="line"/>
    </contour>
    <contour>
      <point x="83" y="685" type="curve" smooth="yes"/>
      <point x="83" y="640"/>
      <point x="110" y="605"/>
      <point x="156" y="605" type="curve" smooth="yes"/>
      <point x="202" y="605"/>
      <point x="230" y="640"/>
      <point x="230" y="685" type="curve" smooth="yes"/>
      <point x="230" y="731"/>
      <point x="202" y="767"/>
      <point x="156" y="767" type="curve" smooth="yes"/>
      <point x="110" y="767"/>
      <point x="83" y="731"/>
    </contour>
    <contour>
      <point x="424" y="269" type="curve" smooth="yes"/>
      <point x="424" y="224"/>
      <point x="451" y="189"/>
      <point x="497" y="189" type="curve" smooth="yes"/>
      <point x="544" y="189"/>
      <point x="571" y="224"/>
      <point x="571" y="269" type="curve" smooth="yes"/>
      <point x="571" y="315"/>
      <point x="544" y="351"/>
      <point x="497" y="351" type="curve" smooth="yes"/>
      <point x="451" y="351"/>
      <point x="424" y="315"/>
    </contour>
    <contour>
      <point x="424" y="1081" type="curve" smooth="yes"/>
      <point x="424" y="1036"/>
      <point x="451" y="1001"/>
      <point x="497" y="1001" type="curve" smooth="yes"/>
      <point x="544" y="1001"/>
      <point x="571" y="1036"/>
      <point x="571" y="1081" type="curve" smooth="yes"/>
      <point x="571" y="1127"/>
      <point x="544" y="1163"/>
      <point x="497" y="1163" type="curve" smooth="yes"/>
      <point x="451" y="1163"/>
      <point x="424" y="1127"/>
    </contour>
    <contour>
      <point x="766" y="685" type="curve" smooth="yes"/>
      <point x="766" y="640"/>
      <point x="793" y="605"/>
      <point x="840" y="605" type="curve" smooth="yes"/>
      <point x="886" y="605"/>
      <point x="914" y="640"/>
      <point x="914" y="685" type="curve" smooth="yes"/>
      <point x="914" y="731"/>
      <point x="886" y="767"/>
      <point x="840" y="767" type="curve" smooth="yes"/>
      <point x="793" y="767"/>
      <point x="766" y="731"/>
    </contour>
  </outline>
</glyph>
<glyph name="uni2071" format="2">
  <advance width="373"/>
  <unicode hex="2071"/>
  <outline>
    <contour>
      <point x="241" y="1360" type="line"/>
      <point x="137" y="1360" type="line"/>
      <point x="137" y="559" type="line"/>
      <point x="241" y="559" type="line"/>
    </contour>
    <contour>
      <point x="121" y="1585" type="curve" smooth="yes"/>
      <point x="121" y="1545"/>
      <point x="145" y="1514"/>
      <point x="186" y="1514" type="curve" smooth="yes"/>
      <point x="228" y="1514"/>
      <point x="252" y="1545"/>
      <point x="252" y="1585" type="curve" smooth="yes"/>
      <point x="252" y="1627"/>
      <point x="228" y="1658"/>
      <point x="186" y="1658" type="curve" smooth="yes"/>
      <point x="145" y="1658"/>
      <point x="121" y="1627"/>
    </contour>
  </outline>
</glyph>
<glyph name="infinity" format="2">
  <advance width="1849"/>
  <unicode hex="221E"/>
  <guideline x="0.0" y="2079.0" angle="0.0" identifier="FtoyzAjgGe"/>
  <outline>
    <contour>
      <point x="117" y="522" type="line"/>
      <point x="117" y="232"/>
      <point x="273" y="-21"/>
      <point x="515" y="-21" type="curve" smooth="yes"/>
      <point x="814" y="-21"/>
      <point x="928" y="401"/>
      <point x="959" y="520" type="curve"/>
      <point x="959" y="562" type="line"/>
      <point x="927" y="684"/>
      <point x="813" y="1102"/>
      <point x="513" y="1102" type="curve" smooth="yes"/>
      <point x="273" y="1102"/>
      <point x="117" y="849"/>
      <point x="117" y="559" type="curve"/>
    </contour>
    <contour>
      <point x="228" y="559" type="line"/>
      <point x="228" y="782"/>
      <point x="326" y="998"/>
      <point x="513" y="998" type="curve" smooth="yes"/>
      <point x="751" y="998"/>
      <point x="847" y="603"/>
      <point x="857" y="562" type="curve"/>
      <point x="857" y="520" type="line"/>
      <point x="847" y="478"/>
      <point x="751" y="83"/>
      <point x="515" y="83" type="curve" smooth="yes"/>
      <point x="326" y="83"/>
      <point x="228" y="297"/>
      <point x="228" y="522" type="curve"/>
    </contour>
    <contour>
      <point x="1721" y="559" type="line"/>
      <point x="1721" y="849"/>
      <point x="1565" y="1102"/>
      <point x="1325" y="1102" type="curve" smooth="yes"/>
      <point x="1025" y="1102"/>
      <point x="910" y="684"/>
      <point x="878" y="562" type="curve"/>
      <point x="878" y="520" type="line"/>
      <point x="909" y="401"/>
      <point x="1024" y="-21"/>
      <point x="1323" y="-21" type="curve" smooth="yes"/>
      <point x="1565" y="-21"/>
      <point x="1721" y="232"/>
      <point x="1721" y="522" type="curve" smooth="yes"/>
    </contour>
    <contour>
      <point x="1610" y="522" type="line"/>
      <point x="1610" y="297"/>
      <point x="1511" y="83"/>
      <point x="1323" y="83" type="curve" smooth="yes"/>
      <point x="1087" y="83"/>
      <point x="990" y="478"/>
      <point x="980" y="520" type="curve"/>
      <point x="980" y="562" type="line"/>
      <point x="990" y="603"/>
      <point x="1087" y="998"/>
      <point x="1325" y="998" type="curve" smooth="yes"/>
      <point x="1511" y="998"/>
      <point x="1610" y="782"/>
      <point x="1610" y="559" type="curve" smooth="yes"/>
    </contour>
  </outline>
</glyph>
<glyph name="uni2C6C" format="2">
  <advance width="898"/>
  <unicode hex="2C6C"/>
  <outline>
    <contour>
      <point x="671" y="104" type="line"/>
      <point x="716" y="0" type="line"/>
      <point x="716" y="-318" type="line"/>
      <point x="827" y="-318" type="line"/>
      <point x="827" y="104" type="line"/>
    </contour>
    <contour>
      <point x="802" y="104" type="line"/>
      <point x="134" y="104" type="line"/>
      <point x="134" y="0" type="line"/>
      <point x="802" y="0" type="line"/>
    </contour>
    <contour>
      <point x="775" y="992" type="line"/>
      <point x="775" y="1082" type="line"/>
      <point x="705" y="1082" type="line"/>
      <point x="94" y="91" type="line"/>
      <point x="94" y="0" type="line"/>
      <point x="162" y="0" type="line"/>
    </contour>
    <contour>
      <point x="726" y="1082" type="line"/>
      <point x="109" y="1082" type="line"/>
      <point x="109" y="977" type="line"/>
      <point x="726" y="977" type="line"/>
    </contour>
  </outline>
</glyph>
<glyph name="uniA673" format="2">
  <advance width="838"/>
  <unicode hex="A673"/>
  <guideline x="457.0" y="0.0" angle="90.0" identifier="6MyEW5RSIH"/>
  <outline>
    <contour>
      <point x="308" y="1082" type="line"/>
      <point x="420" y="1312" type="line"/>
      <point x="531" y="1082" type="line"/>
      <point x="751" y="1082" type="line"/>
      <point x="640" y="853" type="line"/>
      <point x="751" y="627" type="line"/>
      <point x="531" y="627" type="line"/>
      <point x="420" y="397" type="line"/>
      <point x="308" y="627" type="line"/>
      <point x="87" y="627" type="line"/>
      <point x="198" y="853" type="line"/>
      <point x="87" y="1082" type="line"/>
    </contour>
    <contour>
      <point x="222" y="712" type="line"/>
      <point x="353" y="712" type="line"/>
      <point x="420" y="571" type="line"/>
      <point x="488" y="712" type="line"/>
      <point x="619" y="712" type="line"/>
      <point x="553" y="853" type="line"/>
      <point x="619" y="995" type="line"/>
      <point x="488" y="995" type="line"/>
      <point x="420" y="1139" type="line"/>
      <point x="353" y="995" type="line"/>
      <point x="222" y="995" type="line"/>
      <point x="286" y="853" type="line"/>
    </contour>
  </outline>
</glyph>
<glyph name="uniA679" format="2">
  <unicode hex="A679"/>
  <anchor x="-437" y="1170" name="_top"/>
  <outline>
    <contour>
      <point x="-180" y="1754" type="line"/>
      <point x="-255" y="1754" type="line"/>
      <point x="-255" y="1202" type="line"/>
      <point x="-180" y="1202" type="line"/>
    </contour>
    <contour>
      <point x="-642" y="1563" type="line"/>
      <point x="-642" y="1495" type="line"/>
      <point x="-494" y="1495" type="line" smooth="yes"/>
      <point x="-414" y="1495"/>
      <point x="-385" y="1446"/>
      <point x="-385" y="1383" type="curve" smooth="yes"/>
      <point x="-385" y="1318"/>
      <point x="-413" y="1270"/>
      <point x="-494" y="1270" type="curve" smooth="yes"/>
      <point x="-618" y="1270" type="line"/>
      <point x="-618" y="1754" type="line"/>
      <point x="-693" y="1754" type="line"/>
      <point x="-693" y="1202" type="line"/>
      <point x="-494" y="1202" type="line" smooth="yes"/>
      <point x="-379" y="1202"/>
      <point x="-310" y="1265"/>
      <point x="-310" y="1383" type="curve" smooth="yes"/>
      <point x="-310" y="1501"/>
      <point x="-379" y="1563"/>
      <point x="-494" y="1563" type="curve" smooth="yes"/>
    </contour>
  </outline>
</glyph>
<glyph name="uniA69B" format="2">
  <advance width="1007"/>
  <unicode hex="A69B"/>
  <guideline x="0.0" y="541.0" angle="0.0" identifier="wKZxJXOnaA"/>
  <guideline x="585.0" y="0.0" angle="90.0" identifier="gmM9yigVkr"/>
  <outline>
    <contour>
      <point x="549" y="1041" type="line"/>
      <point x="456" y="1041" type="line"/>
      <point x="456" y="30" type="line"/>
      <point x="549" y="30" type="line"/>
    </contour>
    <contour>
      <point x="887" y="494" type="line"/>
      <point x="887" y="598" type="line"/>
      <point x="125" y="598" type="line"/>
      <point x="125" y="494" type="line"/>
    </contour>
    <contour>
      <point x="97" y="525" type="line"/>
      <point x="97" y="210"/>
      <point x="257" y="-20"/>
      <point x="504" y="-20" type="curve" smooth="yes"/>
      <point x="752" y="-20"/>
      <point x="911" y="210"/>
      <point x="911" y="525" type="curve"/>
      <point x="911" y="557" type="line"/>
      <point x="911" y="872"/>
      <point x="752" y="1102"/>
      <point x="503" y="1102" type="curve" smooth="yes"/>
      <point x="257" y="1102"/>
      <point x="97" y="872"/>
      <point x="97" y="557" type="curve"/>
    </contour>
    <contour>
      <point x="208" y="557" type="line"/>
      <point x="208" y="789"/>
      <point x="311" y="998"/>
      <point x="503" y="998" type="curve" smooth="yes"/>
      <point x="696" y="998"/>
      <point x="800" y="789"/>
      <point x="800" y="557" type="curve"/>
      <point x="800" y="525" type="line"/>
      <point x="800" y="288"/>
      <point x="696" y="84"/>
      <point x="504" y="84" type="curve" smooth="yes"/>
      <point x="311" y="84"/>
      <point x="208" y="288"/>
      <point x="208" y="525" type="curve"/>
    </contour>
  </outline>
</glyph>
<glyph name="uniA72E" format="2">
  <advance width="1070"/>
  <unicode hex="A72E"/>
  <outline>
    <contour>
      <point x="954" y="471" type="line"/>
      <point x="208" y="471" type="line"/>
      <point x="606" y="1207" type="line"/>
      <point x="729" y="1456" type="line"/>
      <point x="637" y="1456" type="line"/>
      <point x="74" y="437" type="line"/>
      <point x="74" y="367" type="line"/>
      <point x="954" y="367" type="line"/>
    </contour>
    <contour>
      <point x="757" y="1456" type="line"/>
      <point x="646" y="1456" type="line"/>
      <point x="646" y="394" type="line"/>
      <point x="757" y="394" type="line"/>
    </contour>
    <contour>
      <point x="646" y="446" type="line"/>
      <point x="646" y="328" type="line" smooth="yes"/>
      <point x="646" y="165"/>
      <point x="582" y="87"/>
      <point x="477" y="87" type="curve" smooth="yes"/>
      <point x="455" y="87"/>
      <point x="426" y="93"/>
      <point x="409" y="100" type="curve"/>
      <point x="404" y="-1" type="line"/>
      <point x="433" y="-13"/>
      <point x="469" y="-20"/>
      <point x="500" y="-20" type="curve" smooth="yes"/>
      <point x="656" y="-20"/>
      <point x="757" y="103"/>
      <point x="757" y="328" type="curve" smooth="yes"/>
      <point x="757" y="446" type="line"/>
    </contour>
    <contour>
      <point x="977" y="241" type="line"/>
      <point x="870" y="241" type="line"/>
      <point x="870" y="161" type="line" smooth="yes"/>
      <point x="870" y="71"/>
      <point x="850" y="4"/>
      <point x="810" y="-67" type="curve"/>
      <point x="875" y="-120" type="line"/>
      <point x="941" y="-51"/>
      <point x="977" y="58"/>
      <point x="977" y="163" type="curve" smooth="yes"/>
    </contour>
  </outline>
</glyph>
<glyph name="uniA732" format="2">
  <advance width="1775"/>
  <unicode hex="A732"/>
  <outline>
    <contour>
      <point x="1235" y="1368" type="line"/>
      <point x="1241" y="1456" type="line"/>
      <point x="1160" y="1456" type="line"/>
      <point x="858" y="503" type="line"/>
      <point x="918" y="348" type="line"/>
    </contour>
    <contour>
      <point x="1611" y="0" type="line"/>
      <point x="1730" y="0" type="line"/>
      <point x="1266" y="1456" type="line"/>
      <point x="1186" y="1456" type="line"/>
      <point x="1191" y="1368" type="line"/>
    </contour>
    <contour>
      <point x="1546" y="514" type="line"/>
      <point x="889" y="514" type="line"/>
      <point x="889" y="407" type="line"/>
      <point x="1546" y="407" type="line"/>
    </contour>
    <contour>
      <point x="584" y="1368" type="line"/>
      <point x="590" y="1456" type="line"/>
      <point x="509" y="1456" type="line"/>
      <point x="45" y="0" type="line"/>
      <point x="164" y="0" type="line"/>
    </contour>
    <contour>
      <point x="960" y="0" type="line"/>
      <point x="1079" y="0" type="line"/>
      <point x="615" y="1456" type="line"/>
      <point x="535" y="1456" type="line"/>
      <point x="540" y="1368" type="line"/>
    </contour>
    <contour>
      <point x="895" y="514" type="line"/>
      <point x="238" y="514" type="line"/>
      <point x="238" y="407" type="line"/>
      <point x="895" y="407" type="line"/>
    </contour>
  </outline>
</glyph>
<glyph name="uniA762" format="2">
  <advance width="1030"/>
  <unicode hex="A762"/>
  <outline>
    <contour>
      <point x="828" y="1127" type="line"/>
      <point x="828" y="1231" type="line"/>
      <point x="524" y="1231" type="line" smooth="yes"/>
      <point x="311" y="1231"/>
      <point x="210" y="1326"/>
      <point x="210" y="1525" type="curve" smooth="yes"/>
      <point x="210" y="1697"/>
      <point x="311" y="1821"/>
      <point x="511" y="1821" type="curve" smooth="yes"/>
      <point x="673" y="1821"/>
      <point x="798" y="1699"/>
      <point x="798" y="1519" type="curve"/>
      <point x="911" y="1519" type="line"/>
      <point x="911" y="1790"/>
      <point x="715" y="1931"/>
      <point x="511" y="1931" type="curve" smooth="yes"/>
      <point x="265" y="1931"/>
      <point x="96" y="1786"/>
      <point x="96" y="1521" type="curve" smooth="yes"/>
      <point x="96" y="1278"/>
      <point x="249" y="1127"/>
      <point x="521" y="1127" type="curve" smooth="yes"/>
    </contour>
    <contour>
      <point x="357" y="797" type="line"/>
      <point x="357" y="696" type="line"/>
      <point x="495" y="696" type="line" smooth="yes"/>
      <point x="704" y="696"/>
      <point x="818" y="615"/>
      <point x="818" y="392" type="curve" smooth="yes"/>
      <point x="818" y="209"/>
      <point x="705" y="89"/>
      <point x="508" y="89" type="curve" smooth="yes"/>
      <point x="334" y="89"/>
      <point x="214" y="224"/>
      <point x="214" y="404" type="curve"/>
      <point x="100" y="404" type="line"/>
      <point x="100" y="109"/>
      <point x="310" y="-21"/>
      <point x="508" y="-21" type="curve" smooth="yes"/>
      <point x="754" y="-21"/>
      <point x="932" y="131"/>
      <point x="932" y="396" type="curve" smooth="yes"/>
      <point x="932" y="662"/>
      <point x="782" y="797"/>
      <point x="498" y="797" type="curve" smooth="yes"/>
    </contour>
    <contour>
      <point x="818" y="1231" type="line"/>
      <point x="357" y="799" type="line"/>
      <point x="357" y="712" type="line"/>
      <point x="418" y="712" type="line"/>
      <point x="867" y="1146" type="line"/>
      <point x="867" y="1231" type="line"/>
    </contour>
  </outline>
</glyph>
<glyph name="uniA7AC" format="2">
  <advance width="1175"/>
  <unicode hex="A7AC"/>
  <outline>
    <contour>
      <point x="902" y="1456" type="line"/>
      <point x="886" y="1218" type="line"/>
      <point x="886" y="15" type="line" smooth="yes"/>
      <point x="886" y="-220"/>
      <point x="779" y="-328"/>
      <point x="600" y="-328" type="curve" smooth="yes"/>
      <point x="475" y="-328"/>
      <point x="375" y="-274"/>
      <point x="291" y="-172" type="curve"/>
      <point x="226" y="-251" type="line"/>
      <point x="317" y="-374"/>
      <point x="449" y="-436"/>
      <point x="599" y="-436" type="curve" smooth="yes"/>
      <point x="845" y="-436"/>
      <point x="1001" y="-281"/>
      <point x="1001" y="19" type="curve" smooth="yes"/>
      <point x="1001" y="1456" type="line"/>
    </contour>
    <contour>
      <point x="919" y="278" type="line"/>
      <point x="862" y="165"/>
      <point x="746" y="86"/>
      <point x="588" y="86" type="curve" smooth="yes"/>
      <point x="362" y="86"/>
      <point x="239" y="319"/>
      <point x="239" y="637" type="curve" smooth="yes"/>
      <point x="239" y="820" type="line" smooth="yes"/>
      <point x="239" y="1150"/>
      <point x="371" y="1369"/>
      <point x="596" y="1369" type="curve" smooth="yes"/>
      <point x="747" y="1369"/>
      <point x="867" y="1300"/>
      <point x="914" y="1200" type="curve"/>
      <point x="965" y="1279" type="line"/>
      <point x="893" y="1400"/>
      <point x="769" y="1476"/>
      <point x="596" y="1476" type="curve" smooth="yes"/>
      <point x="307" y="1476"/>
      <point x="125" y="1212"/>
      <point x="125" y="818" type="curve" smooth="yes"/>
      <point x="125" y="637" type="line" smooth="yes"/>
      <point x="125" y="243"/>
      <point x="308" y="-21"/>
      <point x="588" y="-21" type="curve" smooth="yes"/>
      <point x="763" y="-21"/>
      <point x="886" y="53"/>
      <point x="960" y="169" type="curve"/>
    </contour>
  </outline>
</glyph>
<glyph name="quotedblx" format="2">
  <advance width="545"/>
  <unicode hex="EE02"/>
  <outline>
    <contour>
      <point x="207" y="1082" type="line"/>
      <point x="118" y="1082" type="line"/>
      <point x="118" y="668" type="line"/>
      <point x="207" y="668" type="line"/>
    </contour>
    <contour>
      <point x="441" y="1082" type="line"/>
      <point x="353" y="1082" type="line"/>
      <point x="353" y="668" type="line"/>
      <point x="441" y="668" type="line"/>
    </contour>
  </outline>
</glyph>
<glyph name="uniFE25" format="2">
  <unicode hex="FE25"/>
  <anchor x="-688" y="1170" name="_top"/>
  <outline>
    <contour>
      <point x="-464" y="1456" type="line"/>
      <point x="-913" y="1456" type="line"/>
      <point x="-913" y="1357" type="line"/>
      <point x="-464" y="1357" type="line"/>
    </contour>
  </outline>
</glyph>
<glyph name="linevertsubnosp_uni1ABD" format="2">
  <anchor x="-466" y="0" name="_bottom"/>
  <anchor x="-463" y="-489" name="bottom"/>
  <outline>
    <contour>
      <point x="-731" y="-489" type="curve"/>
      <point x="-725" y="-439" type="line"/>
      <point x="-774" y="-413"/>
      <point x="-821" y="-360"/>
      <point x="-821" y="-273" type="curve" smooth="yes"/>
      <point x="-821" y="-192"/>
      <point x="-777" y="-136"/>
      <point x="-725" y="-112" type="curve"/>
      <point x="-731" y="-60" type="line"/>
      <point x="-801" y="-86"/>
      <point x="-882" y="-165"/>
      <point x="-882" y="-273" type="curve" smooth="yes"/>
      <point x="-882" y="-387"/>
      <point x="-801" y="-463"/>
    </contour>
    <contour>
      <point x="-184" y="-489" type="line"/>
      <point x="-114" y="-463"/>
      <point x="-33" y="-387"/>
      <point x="-33" y="-273" type="curve" smooth="yes"/>
      <point x="-33" y="-165"/>
      <point x="-114" y="-86"/>
      <point x="-184" y="-60" type="curve"/>
      <point x="-190" y="-112" type="line"/>
      <point x="-138" y="-136"/>
      <point x="-94" y="-191"/>
      <point x="-94" y="-273" type="curve" smooth="yes"/>
      <point x="-94" y="-360"/>
      <point x="-141" y="-413"/>
      <point x="-190" y="-439" type="curve"/>
    </contour>
    <contour>
      <point x="-421" y="-81" type="line"/>
      <point x="-509" y="-81" type="line"/>
      <point x="-509" y="-489" type="line"/>
      <point x="-421" y="-489" type="line"/>
    </contour>
  </outline>
</glyph>
<glyph name="uni02E7_uni02E5_uni02E6" format="2">
  <advance width="1013"/>
  <outline>
    <contour>
      <point x="844" y="0" type="line"/>
      <point x="844" y="1456" type="line"/>
      <point x="733" y="1456" type="line"/>
      <point x="733" y="1153" type="line"/>
      <point x="480" y="1456" type="line"/>
      <point x="151" y="727" type="line"/>
      <point x="231" y="675" type="line"/>
      <point x="503" y="1291" type="line"/>
      <point x="733" y="1012" type="line"/>
      <point x="733" y="0" type="line"/>
    </contour>
  </outline>
</glyph>
<glyph name="uni1ABC.w2" format="2">
  <anchor x="-581" y="214" name="_parenthesses.w2"/>
  <outline>
    <contour>
      <point x="-883" y="0" type="curve"/>
      <point x="-877" y="51" type="line"/>
      <point x="-926" y="76"/>
      <point x="-973" y="130"/>
      <point x="-973" y="216" type="curve" smooth="yes"/>
      <point x="-973" y="297"/>
      <point x="-929" y="353"/>
      <point x="-877" y="378" type="curve"/>
      <point x="-883" y="429" type="line"/>
      <point x="-953" y="403"/>
      <point x="-1034" y="324"/>
      <point x="-1034" y="216" type="curve" smooth="yes"/>
      <point x="-1034" y="103"/>
      <point x="-953" y="26"/>
    </contour>
    <contour>
      <point x="-279" y="0" type="line"/>
      <point x="-209" y="26"/>
      <point x="-129" y="103"/>
      <point x="-129" y="216" type="curve" smooth="yes"/>
      <point x="-129" y="325"/>
      <point x="-209" y="403"/>
      <point x="-279" y="429" type="curve"/>
      <point x="-285" y="378" type="line"/>
      <point x="-233" y="353"/>
      <point x="-190" y="298"/>
      <point x="-190" y="216" type="curve" smooth="yes"/>
      <point x="-190" y="129"/>
      <point x="-236" y="76"/>
      <point x="-285" y="51" type="curve"/>
    </contour>
    <contour>
      <point x="-1032" y="0" type="curve"/>
      <point x="-1026" y="51" type="line"/>
      <point x="-1075" y="76"/>
      <point x="-1121" y="130"/>
      <point x="-1121" y="216" type="curve" smooth="yes"/>
      <point x="-1121" y="297"/>
      <point x="-1077" y="353"/>
      <point x="-1026" y="378" type="curve"/>
      <point x="-1032" y="429" type="line"/>
      <point x="-1102" y="403"/>
      <point x="-1182" y="324"/>
      <point x="-1182" y="216" type="curve" smooth="yes"/>
      <point x="-1182" y="103"/>
      <point x="-1102" y="26"/>
    </contour>
    <contour>
      <point x="-131" y="0" type="line"/>
      <point x="-61" y="26"/>
      <point x="20" y="103"/>
      <point x="20" y="216" type="curve" smooth="yes"/>
      <point x="20" y="325"/>
      <point x="-61" y="403"/>
      <point x="-131" y="429" type="curve"/>
      <point x="-137" y="378" type="line"/>
      <point x="-85" y="353"/>
      <point x="-41" y="298"/>
      <point x="-41" y="216" type="curve" smooth="yes"/>
      <point x="-41" y="129"/>
      <point x="-87" y="76"/>
      <point x="-137" y="51" type="curve"/>
    </contour>
  </outline>
</glyph>
<glyph name="uni1D96.ccmp" format="2">
  <advance width="445"/>
  <anchor x="217" y="1279" name="top"/>
  <anchor x="216" y="-459" name="bottom"/>
  <anchor x="425" y="1279" name="top0315"/>
  <anchor x="217" y="1279" name="parent_top"/>
  <outline>
    <contour>
      <point x="271" y="1082" type="line"/>
      <point x="159" y="1082" type="line"/>
      <point x="159" y="0" type="line"/>
      <point x="271" y="0" type="line"/>
    </contour>
    <contour>
      <point x="309" y="100" type="line"/>
      <point x="198" y="100" type="line"/>
      <point x="198" y="-89" type="line" smooth="yes"/>
      <point x="198" y="-314"/>
      <point x="265" y="-437"/>
      <point x="420" y="-437" type="curve" smooth="yes"/>
      <point x="452" y="-437"/>
      <point x="487" y="-430"/>
      <point x="516" y="-418" type="curve"/>
      <point x="511" y="-317" type="line"/>
      <point x="494" y="-324"/>
      <point x="466" y="-330"/>
      <point x="444" y="-330" type="curve" smooth="yes"/>
      <point x="347" y="-330"/>
      <point x="309" y="-252"/>
      <point x="309" y="-89" type="curve" smooth="yes"/>
    </contour>
  </outline>
</glyph>
<glyph name="zero.sup" format="2">
  <advance width="663"/>
  <outline>
    <contour>
      <point x="570" y="463" type="line"/>
      <point x="570" y="685"/>
      <point x="478" y="800"/>
      <point x="331" y="800" type="curve" smooth="yes"/>
      <point x="184" y="800"/>
      <point x="92" y="685"/>
      <point x="92" y="463" type="curve"/>
      <point x="92" y="326" type="line"/>
      <point x="92" y="103"/>
      <point x="186" y="-11"/>
      <point x="332" y="-11" type="curve" smooth="yes"/>
      <point x="479" y="-11"/>
      <point x="570" y="103"/>
      <point x="570" y="326" type="curve"/>
    </contour>
    <contour>
      <point x="473" y="317" type="line"/>
      <point x="473" y="165"/>
      <point x="425" y="78"/>
      <point x="332" y="78" type="curve" smooth="yes"/>
      <point x="239" y="78"/>
      <point x="189" y="165"/>
      <point x="189" y="317" type="curve" smooth="yes"/>
      <point x="189" y="473" type="line" smooth="yes"/>
      <point x="189" y="625"/>
      <point x="238" y="710"/>
      <point x="331" y="710" type="curve" smooth="yes"/>
      <point x="424" y="710"/>
      <point x="473" y="625"/>
      <point x="473" y="473" type="curve"/>
    </contour>
  </outline>
</glyph>
